<svg width="69" height="88" viewBox="0 0 69 88" fill="none" xmlns="http://www.w3.org/2000/svg">
<path d="M30.6814 36.6971C32.6594 35.4237 35.1991 35.4237 37.1771 36.6971L56.4951 49.1338C60.1325 51.4755 60.1717 56.78 56.5693 59.1751L37.2513 72.0195C35.2387 73.3576 32.6198 73.3576 30.6072 72.0195L11.2892 59.1751C7.68686 56.78 7.72605 51.4755 11.3634 49.1338L30.6814 36.6971Z" fill="white" stroke="black" stroke-width="4" stroke-linecap="round" stroke-linejoin="round"/>
<path d="M30.9508 26.6708C32.9288 25.3974 35.4685 25.3974 37.4465 26.6708L56.7645 39.1074C60.4019 41.4491 60.4411 46.7536 56.8387 49.1488L37.5207 61.9931C35.5081 63.3313 32.8892 63.3313 30.8766 61.9931L11.5586 49.1488C7.95626 46.7536 7.99546 41.4491 11.6328 39.1074L30.9508 26.6708Z" fill="white" stroke="black" stroke-width="4" stroke-linecap="round" stroke-linejoin="round"/>
<path d="M30.6814 16.5557C32.6594 15.2823 35.1991 15.2823 37.1771 16.5557L56.4951 28.9923C60.1325 31.334 60.1717 36.6385 56.5693 39.0336L37.2513 51.878C35.2387 53.2161 32.6198 53.2161 30.6072 51.878L11.2892 39.0336C7.68686 36.6385 7.72605 31.334 11.3634 28.9923L30.6814 16.5557Z" fill="white" stroke="black" stroke-width="4" stroke-linecap="round" stroke-linejoin="round"/>
</svg>
