<svg width="64" height="64" viewBox="0 0 64 64" fill="none" xmlns="http://www.w3.org/2000/svg">
<path fill-rule="evenodd" clip-rule="evenodd" d="M57.3975 26.0076C55.6933 15.5186 46.784 7.71526 36.1618 7.40808C35.6568 7.38828 35.1646 7.57011 34.7937 7.91351C34.4228 8.2569 34.2037 8.73367 34.1847 9.23874V9.23874V9.4096L35.3807 27.3013C35.4592 28.5057 36.4946 29.4212 37.6996 29.3516L55.6401 28.1556C56.1456 28.1182 56.6153 27.8808 56.9452 27.4959C57.2751 27.1111 57.4379 26.6105 57.3975 26.1053V26.0076Z" stroke="#200E32" stroke-width="4" stroke-linecap="round" stroke-linejoin="round"/>
<path d="M23.7377 18.0504C24.8789 17.7864 26.0467 18.3703 26.5203 19.4417C26.6443 19.6937 26.7189 19.9671 26.74 20.2472C26.9841 23.7132 27.4966 31.3044 27.7896 35.4051C27.8396 36.1437 28.1819 36.832 28.7408 37.3176C29.2997 37.8032 30.029 38.0461 30.7674 37.9924V37.9924L45.8277 37.0649C46.5 37.0245 47.1592 37.2637 47.6491 37.7259C48.1391 38.1881 48.4162 38.8322 48.415 39.5058V39.5058C47.8047 48.6001 41.2708 56.2028 32.3716 58.1735C23.4724 60.1442 14.3395 56.0108 9.94668 48.0244C8.63535 45.7259 7.80491 43.1847 7.5058 40.5553C7.37793 39.7484 7.32888 38.9309 7.35935 38.1144C7.38525 28.4025 14.206 20.0343 23.7133 18.0504" stroke="#200E32" stroke-width="4" stroke-linecap="round" stroke-linejoin="round"/>
</svg>
