<svg width="64" height="64" viewBox="0 0 64 64" fill="none" xmlns="http://www.w3.org/2000/svg">
<path fill-rule="evenodd" clip-rule="evenodd" d="M44.8565 12.217C44.8565 8.41524 47.948 5.33331 51.7616 5.33331C55.5751 5.33331 58.6666 8.41524 58.6666 12.217C58.6666 16.0187 55.5751 19.1007 51.7616 19.1007C47.948 19.1007 44.8565 16.0187 44.8565 12.217ZM54.7905 12.217C54.7905 10.5493 53.4344 9.19739 51.7615 9.19739C50.0887 9.19739 48.7325 10.5493 48.7325 12.217C48.7325 13.8847 50.0887 15.2366 51.7615 15.2366C53.4344 15.2366 54.7905 13.8847 54.7905 12.217ZM41.4073 25.4405C42.0629 24.5971 43.2802 24.4431 44.1263 25.0966C44.8955 25.6907 45.0931 26.7477 44.6301 27.5687L44.4713 27.8072L36.9025 37.5454C36.3037 38.3158 35.237 38.5105 34.4127 38.042L34.1734 37.8814L26.8893 32.178L20.3498 40.6527C19.7564 41.4215 18.6969 41.622 17.8718 41.1633L17.632 41.0058C16.8608 40.4143 16.6597 39.358 17.1198 38.5354L17.2778 38.2964L25.0122 28.2752C25.6097 27.501 26.6791 27.3039 27.5054 27.7732L27.7453 27.934L35.0316 33.6412L41.4073 25.4405ZM40.5962 9.43462C40.5962 8.36759 39.7285 7.50259 38.6582 7.50259H19.8782L19.2729 7.51267C10.8673 7.79418 5.33337 13.9483 5.33337 22.6862V43.5066L5.34264 44.1283C5.60171 52.7673 11.2718 58.6666 19.8782 58.6666H42.1115L42.7169 58.6566C51.1256 58.3759 56.6562 52.2403 56.6562 43.5066V25.3742L56.6386 25.112C56.5102 24.169 55.6994 23.4422 54.7182 23.4422C53.6479 23.4422 52.7802 24.3072 52.7802 25.3742V43.5066L52.7695 44.1063C52.5353 50.6315 48.46 54.8026 42.1115 54.8026H19.8782L19.3025 54.7912C13.0428 54.5422 9.20942 50.2108 9.20942 43.5066V22.6862L9.2201 22.0859C9.45465 15.554 13.5352 11.3666 19.8782 11.3666H38.6582L38.9212 11.349C39.8671 11.2211 40.5962 10.4127 40.5962 9.43462Z" fill="#200E32"/>
</svg>
