<svg width="59" height="43" viewBox="0 0 59 43" fill="none" xmlns="http://www.w3.org/2000/svg">
<g clip-path="url(#clip0)">
<path fill-rule="evenodd" clip-rule="evenodd" d="M46.8368 6.83777C43.3065 9.40392 39.4028 13.1429 36.2245 16.2805C33.502 18.9682 31.6032 21.5018 30.438 23.7353C27.5853 23.2949 24.5685 24.1735 22.371 26.3709C21.2934 27.4485 20.6439 29.0337 20.2185 30.512C19.7765 32.0477 19.5005 33.7487 19.3248 35.2978C19.1481 36.856 19.0674 38.3112 19.0306 39.3737C19.0121 39.9064 19.0046 40.3438 19.0017 40.6503C19.0002 40.8036 18.9999 40.9243 19 41.008L19.0003 41.1054L19.0005 41.1323L19.0006 41.1401L19.0006 41.1435C19.0111 42.164 19.8364 42.9894 20.857 42.9998L20.8603 42.9999L20.8681 42.9999L20.895 43.0001L20.9924 43.0004C21.0762 43.0005 21.1969 43.0002 21.3502 42.9987C21.6566 42.9958 22.094 42.9883 22.6267 42.9698C23.6892 42.933 25.1444 42.8523 26.7025 42.6755C28.2516 42.4998 29.9525 42.2237 31.4883 41.7817C32.9665 41.3562 34.5517 40.7067 35.6293 39.6291C37.8204 37.438 38.7002 34.4321 38.2687 31.5867C40.5392 30.4352 43.1237 28.5485 45.8694 25.8379C49.0664 22.6817 52.7799 18.7735 55.3066 15.2146C56.5593 13.4501 57.614 11.6437 58.1188 9.97461C58.6173 8.32681 58.7077 6.30217 57.199 4.79732C55.6827 3.28093 53.6488 3.42566 52.0274 3.94951C50.3769 4.48273 48.5875 5.56515 46.8368 6.83777ZM36.958 28.0399C36.5877 27.447 36.1448 26.8864 35.6293 26.3709C35.1212 25.8627 34.5692 25.4251 33.9856 25.058C34.6466 23.8783 35.5952 22.5253 36.8887 21.04L41.0343 25.1857C39.5268 26.4588 38.1541 27.3917 36.958 28.0399ZM49.0417 9.87107C45.9811 12.0958 42.5294 15.3446 39.485 18.333L43.7803 22.6283C46.8037 19.6155 50.0551 16.1336 52.2489 13.0437C53.4226 11.3904 54.2004 9.97657 54.5295 8.88886C54.8649 7.7799 54.6098 7.51129 54.5508 7.45241L54.5473 7.44889C54.513 7.41399 54.2698 7.16589 53.1802 7.5179C52.099 7.86722 50.6922 8.67129 49.0417 9.87107ZM23.0509 35.7205C22.9038 37.0177 22.828 38.2493 22.7893 39.2111C23.7511 39.1724 24.9826 39.0966 26.2798 38.9494C27.7215 38.7859 29.1946 38.5396 30.4511 38.178C31.7652 37.7998 32.5908 37.3644 32.9777 36.9775C35.1744 34.7808 35.1744 31.2192 32.9777 29.0225C30.781 26.8258 27.2194 26.8258 25.0227 29.0225C24.6358 29.4094 24.2004 30.2349 23.8223 31.549C23.4606 32.8056 23.2144 34.2787 23.0509 35.7205Z" fill="#24292E"/>
</g>
<line x1="7" y1="41" x2="2" y2="41" stroke="black" stroke-width="4" stroke-linecap="round" stroke-linejoin="round"/>
<line x1="12" y1="28" x2="2" y2="28" stroke="black" stroke-width="4" stroke-linecap="round" stroke-linejoin="round"/>
<line x1="22" y1="15" x2="2" y2="15" stroke="black" stroke-width="4" stroke-linecap="round" stroke-linejoin="round"/>
<line x1="37" y1="2" x2="2" y2="2" stroke="black" stroke-width="4" stroke-linecap="round" stroke-linejoin="round"/>
<defs>
<clipPath id="clip0">
<rect width="40" height="40" fill="white" transform="matrix(-1 0 0 1 59 3)"/>
</clipPath>
</defs>
</svg>
